<svg width="100%" height="auto" viewBox="0 0 88 46" fill="none" xmlns="http://www.w3.org/2000/svg">
<mask id="path-1-outside-1_13_7" maskUnits="userSpaceOnUse" x="0" y="0" width="88" height="46" fill="currentColor">
<rect fill="currentColor" width="88" height="46"/>
<path d="M12.432 43.176C9.44533 43.176 7.09867 42.664 5.392 41.64C3.68533 40.6587 2.832 39.2507 2.832 37.416C2.832 35.5387 3.38667 33.8107 4.496 32.232C5.60533 30.6107 7.03467 29.224 8.784 28.072C10.576 26.8773 12.432 25.96 14.352 25.32C16.3147 24.6373 18.128 24.296 19.792 24.296C20.6453 24.296 21.072 24.424 21.072 24.68C21.072 25.064 20.624 25.256 19.728 25.256C18.1493 25.256 16.4213 25.64 14.544 26.408C12.7093 27.176 11.0667 28.2427 9.616 29.608C8.464 30.632 7.58933 31.6773 6.992 32.744C6.43733 33.768 6.16 34.728 6.16 35.624C6.16 36.9467 6.77867 38.056 8.016 38.952C9.25333 39.8053 11.1093 40.232 13.584 40.232C15.0347 40.232 16.5067 40.1253 18 39.912C19.4933 39.656 20.8373 39.3787 22.032 39.08C23.2693 38.7813 24.208 38.5467 24.848 38.376C26.4267 37.864 28.0053 37.2453 29.584 36.52C31.2053 35.7947 32.656 34.984 33.936 34.088C35.216 33.1493 36.1547 32.2107 36.752 31.272C37.0933 30.76 37.328 30.2693 37.456 29.8C37.6267 29.3307 37.712 28.8827 37.712 28.456C37.712 27.2613 37.1787 26.2587 36.112 25.448C35.0453 24.5947 33.68 23.8267 32.016 23.144C30.352 22.4613 28.5813 21.8213 26.704 21.224C24.8267 20.584 23.056 19.9227 21.392 19.24C19.728 18.5573 18.3627 17.7893 17.296 16.936C16.2293 16.04 15.696 14.9733 15.696 13.736C15.696 12.328 16.208 11.0693 17.232 9.96C18.2987 8.808 19.6427 7.80533 21.264 6.952C22.928 6.056 24.6987 5.33066 26.576 4.776C28.4533 4.17866 30.2453 3.73066 31.952 3.432C33.6587 3.13333 35.0667 2.984 36.176 2.984C40.8693 2.984 43.216 4.15733 43.216 6.504C43.216 7.44267 42.832 8.53067 42.064 9.768C41.7227 10.408 41.232 11.0267 40.592 11.624C39.952 12.1787 39.4613 12.456 39.12 12.456C38.864 12.456 38.736 12.3067 38.736 12.008C38.736 11.88 38.9707 11.624 39.44 11.24C39.9093 10.8133 40.3787 10.3013 40.848 9.704C41.3173 9.10667 41.552 8.50933 41.552 7.912C41.552 7.016 41.04 6.33333 40.016 5.864C39.0347 5.39467 37.7333 5.16 36.112 5.16C35.344 5.16 34.2347 5.288 32.784 5.544C31.3333 5.75733 29.7547 6.12 28.048 6.632C26.3413 7.144 24.6987 7.82667 23.12 8.68C20.176 10.3013 18.704 11.688 18.704 12.84C18.704 13.6933 19.536 14.504 21.2 15.272C22.4373 15.8267 23.8667 16.4027 25.488 17C27.1093 17.5973 28.752 18.2373 30.416 18.92C32.08 19.6027 33.616 20.3707 35.024 21.224C36.4747 22.0773 37.6267 23.0373 38.48 24.104C39.376 25.128 39.824 26.3013 39.824 27.624C39.824 29.416 38.8427 31.2507 36.88 33.128C35.344 34.5787 33.552 35.9227 31.504 37.16C29.4987 38.3973 27.3653 39.464 25.104 40.36C22.8853 41.256 20.688 41.9387 18.512 42.408C16.336 42.92 14.3093 43.176 12.432 43.176ZM59.7165 43.944C57.4978 43.944 55.4498 43.56 53.5725 42.792C51.7378 42.0667 50.2658 40.936 49.1565 39.4C48.0898 37.8213 47.5565 35.816 47.5565 33.384C47.5565 32.0187 47.7485 30.5467 48.1325 28.968C48.7298 26.4507 49.7112 23.9333 51.0765 21.416C52.4845 18.8987 54.1485 16.5307 56.0685 14.312C58.0312 12.0933 60.1645 10.1307 62.4685 8.424C64.7725 6.67467 67.1405 5.30933 69.5725 4.328C72.0472 3.304 74.5005 2.792 76.9325 2.792C77.6578 2.792 78.4045 2.856 79.1725 2.984C80.8792 3.28267 82.1378 3.92267 82.9485 4.904C83.8018 5.84266 84.2285 6.93066 84.2285 8.168C84.2285 9.61867 83.7592 11.0693 82.8205 12.52C81.8818 13.9707 80.6445 15.3573 79.1085 16.68C77.6152 17.96 75.9725 19.112 74.1805 20.136C72.4312 21.16 70.7032 21.992 68.9965 22.632C67.2898 23.272 65.7752 23.6347 64.4525 23.72C63.6418 23.7627 63.2365 23.528 63.2365 23.016C63.2365 22.76 63.3645 22.504 63.6205 22.248C63.9192 21.9493 64.3245 21.7787 64.8365 21.736C68.1645 21.4373 71.2578 20.4347 74.1165 18.728C77.0178 16.9787 79.2365 14.6107 80.7725 11.624C81.1138 10.984 81.3698 10.344 81.5405 9.704C81.7538 9.02133 81.8605 8.38133 81.8605 7.784C81.8605 6.84533 81.5832 6.056 81.0285 5.416C80.5165 4.73333 79.5992 4.392 78.2765 4.392C76.8258 4.392 75.1192 4.84 73.1565 5.736C71.1938 6.58933 69.1245 7.80533 66.9485 9.384C64.8152 10.9627 62.7032 12.84 60.6125 15.016C58.5645 17.1493 56.7085 19.496 55.0445 22.056C53.4232 24.5733 52.1645 27.24 51.2685 30.056C50.7138 31.7627 50.4365 33.3413 50.4365 34.792C50.4365 37.3947 51.3325 39.3147 53.1245 40.552C54.9165 41.7467 57.2418 42.344 60.1005 42.344C62.5752 42.344 65.2845 41.9173 68.2285 41.064C71.2152 40.2107 74.1165 38.9093 76.9325 37.16C79.7485 35.368 82.1165 33.1067 84.0365 30.376C84.1645 30.2053 84.3138 30.12 84.4845 30.12C84.6552 30.12 84.8045 30.2053 84.9325 30.376C85.1032 30.5467 85.1245 30.7173 84.9965 30.888C82.7778 33.96 80.2178 36.456 77.3165 38.376C74.4578 40.296 71.4925 41.704 68.4205 42.6C65.3485 43.496 62.4472 43.944 59.7165 43.944Z"/>
</mask>
<path d="M12.432 43.176C9.44533 43.176 7.09867 42.664 5.392 41.64C3.68533 40.6587 2.832 39.2507 2.832 37.416C2.832 35.5387 3.38667 33.8107 4.496 32.232C5.60533 30.6107 7.03467 29.224 8.784 28.072C10.576 26.8773 12.432 25.96 14.352 25.32C16.3147 24.6373 18.128 24.296 19.792 24.296C20.6453 24.296 21.072 24.424 21.072 24.68C21.072 25.064 20.624 25.256 19.728 25.256C18.1493 25.256 16.4213 25.64 14.544 26.408C12.7093 27.176 11.0667 28.2427 9.616 29.608C8.464 30.632 7.58933 31.6773 6.992 32.744C6.43733 33.768 6.16 34.728 6.16 35.624C6.16 36.9467 6.77867 38.056 8.016 38.952C9.25333 39.8053 11.1093 40.232 13.584 40.232C15.0347 40.232 16.5067 40.1253 18 39.912C19.4933 39.656 20.8373 39.3787 22.032 39.08C23.2693 38.7813 24.208 38.5467 24.848 38.376C26.4267 37.864 28.0053 37.2453 29.584 36.52C31.2053 35.7947 32.656 34.984 33.936 34.088C35.216 33.1493 36.1547 32.2107 36.752 31.272C37.0933 30.76 37.328 30.2693 37.456 29.8C37.6267 29.3307 37.712 28.8827 37.712 28.456C37.712 27.2613 37.1787 26.2587 36.112 25.448C35.0453 24.5947 33.68 23.8267 32.016 23.144C30.352 22.4613 28.5813 21.8213 26.704 21.224C24.8267 20.584 23.056 19.9227 21.392 19.24C19.728 18.5573 18.3627 17.7893 17.296 16.936C16.2293 16.04 15.696 14.9733 15.696 13.736C15.696 12.328 16.208 11.0693 17.232 9.96C18.2987 8.808 19.6427 7.80533 21.264 6.952C22.928 6.056 24.6987 5.33066 26.576 4.776C28.4533 4.17866 30.2453 3.73066 31.952 3.432C33.6587 3.13333 35.0667 2.984 36.176 2.984C40.8693 2.984 43.216 4.15733 43.216 6.504C43.216 7.44267 42.832 8.53067 42.064 9.768C41.7227 10.408 41.232 11.0267 40.592 11.624C39.952 12.1787 39.4613 12.456 39.12 12.456C38.864 12.456 38.736 12.3067 38.736 12.008C38.736 11.88 38.9707 11.624 39.44 11.24C39.9093 10.8133 40.3787 10.3013 40.848 9.704C41.3173 9.10667 41.552 8.50933 41.552 7.912C41.552 7.016 41.04 6.33333 40.016 5.864C39.0347 5.39467 37.7333 5.16 36.112 5.16C35.344 5.16 34.2347 5.288 32.784 5.544C31.3333 5.75733 29.7547 6.12 28.048 6.632C26.3413 7.144 24.6987 7.82667 23.12 8.68C20.176 10.3013 18.704 11.688 18.704 12.84C18.704 13.6933 19.536 14.504 21.2 15.272C22.4373 15.8267 23.8667 16.4027 25.488 17C27.1093 17.5973 28.752 18.2373 30.416 18.92C32.08 19.6027 33.616 20.3707 35.024 21.224C36.4747 22.0773 37.6267 23.0373 38.48 24.104C39.376 25.128 39.824 26.3013 39.824 27.624C39.824 29.416 38.8427 31.2507 36.88 33.128C35.344 34.5787 33.552 35.9227 31.504 37.16C29.4987 38.3973 27.3653 39.464 25.104 40.36C22.8853 41.256 20.688 41.9387 18.512 42.408C16.336 42.92 14.3093 43.176 12.432 43.176ZM59.7165 43.944C57.4978 43.944 55.4498 43.56 53.5725 42.792C51.7378 42.0667 50.2658 40.936 49.1565 39.4C48.0898 37.8213 47.5565 35.816 47.5565 33.384C47.5565 32.0187 47.7485 30.5467 48.1325 28.968C48.7298 26.4507 49.7112 23.9333 51.0765 21.416C52.4845 18.8987 54.1485 16.5307 56.0685 14.312C58.0312 12.0933 60.1645 10.1307 62.4685 8.424C64.7725 6.67467 67.1405 5.30933 69.5725 4.328C72.0472 3.304 74.5005 2.792 76.9325 2.792C77.6578 2.792 78.4045 2.856 79.1725 2.984C80.8792 3.28267 82.1378 3.92267 82.9485 4.904C83.8018 5.84266 84.2285 6.93066 84.2285 8.168C84.2285 9.61867 83.7592 11.0693 82.8205 12.52C81.8818 13.9707 80.6445 15.3573 79.1085 16.68C77.6152 17.96 75.9725 19.112 74.1805 20.136C72.4312 21.16 70.7032 21.992 68.9965 22.632C67.2898 23.272 65.7752 23.6347 64.4525 23.72C63.6418 23.7627 63.2365 23.528 63.2365 23.016C63.2365 22.76 63.3645 22.504 63.6205 22.248C63.9192 21.9493 64.3245 21.7787 64.8365 21.736C68.1645 21.4373 71.2578 20.4347 74.1165 18.728C77.0178 16.9787 79.2365 14.6107 80.7725 11.624C81.1138 10.984 81.3698 10.344 81.5405 9.704C81.7538 9.02133 81.8605 8.38133 81.8605 7.784C81.8605 6.84533 81.5832 6.056 81.0285 5.416C80.5165 4.73333 79.5992 4.392 78.2765 4.392C76.8258 4.392 75.1192 4.84 73.1565 5.736C71.1938 6.58933 69.1245 7.80533 66.9485 9.384C64.8152 10.9627 62.7032 12.84 60.6125 15.016C58.5645 17.1493 56.7085 19.496 55.0445 22.056C53.4232 24.5733 52.1645 27.24 51.2685 30.056C50.7138 31.7627 50.4365 33.3413 50.4365 34.792C50.4365 37.3947 51.3325 39.3147 53.1245 40.552C54.9165 41.7467 57.2418 42.344 60.1005 42.344C62.5752 42.344 65.2845 41.9173 68.2285 41.064C71.2152 40.2107 74.1165 38.9093 76.9325 37.16C79.7485 35.368 82.1165 33.1067 84.0365 30.376C84.1645 30.2053 84.3138 30.12 84.4845 30.12C84.6552 30.12 84.8045 30.2053 84.9325 30.376C85.1032 30.5467 85.1245 30.7173 84.9965 30.888C82.7778 33.96 80.2178 36.456 77.3165 38.376C74.4578 40.296 71.4925 41.704 68.4205 42.6C65.3485 43.496 62.4472 43.944 59.7165 43.944Z" fill="currentColor"/>
<path d="M5.392 41.64L6.42099 39.925L6.40505 39.9155L6.38894 39.9062L5.392 41.64ZM4.496 32.232L6.13238 33.3819L6.13956 33.3717L6.14661 33.3614L4.496 32.232ZM8.784 28.072L9.884 29.7424L9.8934 29.7361L8.784 28.072ZM14.352 25.32L14.9845 27.2174L14.9968 27.2133L15.009 27.209L14.352 25.32ZM14.544 26.408L13.7867 24.5569L13.7792 24.56L13.7717 24.5631L14.544 26.408ZM9.616 29.608L10.9447 31.1028L10.966 31.0839L10.9867 31.0644L9.616 29.608ZM6.992 32.744L5.24699 31.7668L5.24012 31.7791L5.23342 31.7914L6.992 32.744ZM8.016 38.952L6.84298 40.5719L6.8616 40.5854L6.88053 40.5984L8.016 38.952ZM18 39.912L18.2828 41.8919L18.3104 41.888L18.3379 41.8832L18 39.912ZM22.032 39.08L21.5627 37.1358L21.5548 37.1377L21.5469 37.1397L22.032 39.08ZM24.848 38.376L25.3633 40.3085L25.4146 40.2948L25.465 40.2784L24.848 38.376ZM29.584 36.52L28.7673 34.6944L28.7581 34.6985L28.749 34.7026L29.584 36.52ZM33.936 34.088L35.0829 35.7265L35.101 35.7138L35.1187 35.7008L33.936 34.088ZM36.752 31.272L35.0879 30.1626L35.0761 30.1803L35.0647 30.1982L36.752 31.272ZM37.456 29.8L35.5764 29.1165L35.5482 29.1941L35.5265 29.2738L37.456 29.8ZM36.112 25.448L34.8626 27.0097L34.882 27.0253L34.9018 27.0403L36.112 25.448ZM26.704 21.224L26.0587 23.117L26.0781 23.1236L26.0976 23.1299L26.704 21.224ZM17.296 16.936L16.0096 18.4674L16.0279 18.4828L16.0466 18.4977L17.296 16.936ZM17.232 9.96L15.7645 8.60118L15.7624 8.60344L17.232 9.96ZM21.264 6.952L22.1955 8.72184L22.2039 8.71743L22.2122 8.71294L21.264 6.952ZM26.576 4.776L27.1427 6.69403L27.1626 6.68815L27.1824 6.68185L26.576 4.776ZM31.952 3.432L32.2968 5.40206L32.2968 5.40206L31.952 3.432ZM42.064 9.768L40.3647 8.71327L40.3301 8.76897L40.2993 8.82682L42.064 9.768ZM40.592 11.624L41.9019 13.1354L41.9297 13.1112L41.9566 13.0861L40.592 11.624ZM39.44 11.24L40.7065 12.7879L40.7468 12.7549L40.7853 12.7199L39.44 11.24ZM40.848 9.704L42.4206 10.9396L42.4206 10.9396L40.848 9.704ZM40.016 5.864L39.1531 7.66827L39.1678 7.67532L39.1827 7.68213L40.016 5.864ZM32.784 5.544L33.075 7.52272L33.1033 7.51855L33.1316 7.51357L32.784 5.544ZM28.048 6.632L28.6227 8.54765L28.6227 8.54765L28.048 6.632ZM23.12 8.68L22.169 6.92059L22.1621 6.92432L22.1552 6.9281L23.12 8.68ZM21.2 15.272L20.3619 17.0879L20.3719 17.0925L20.3819 17.097L21.2 15.272ZM25.488 17L24.7966 18.8767L24.7966 18.8767L25.488 17ZM30.416 18.92L31.1751 17.0697L31.1751 17.0697L30.416 18.92ZM35.024 21.224L33.9874 22.9344L33.9986 22.9412L34.01 22.9479L35.024 21.224ZM38.48 24.104L36.9183 25.3534L36.9458 25.3878L36.9748 25.421L38.48 24.104ZM36.88 33.128L38.2533 34.5821L38.2624 34.5733L36.88 33.128ZM31.504 37.16L30.4698 35.4482L30.4618 35.453L30.4538 35.4579L31.504 37.16ZM25.104 40.36L24.3673 38.5006L24.3551 38.5055L25.104 40.36ZM18.512 42.408L18.0903 40.453L18.0721 40.4569L18.0539 40.4612L18.512 42.408ZM12.432 43.176V41.176C9.6393 41.176 7.6986 40.6916 6.42099 39.925L5.392 41.64L4.36301 43.355C6.49874 44.6364 9.25137 45.176 12.432 45.176V43.176ZM5.392 41.64L6.38894 39.9062C5.24741 39.2498 4.832 38.4732 4.832 37.416H2.832H0.832C0.832 40.0281 2.12326 42.0675 4.39506 43.3738L5.392 41.64ZM2.832 37.416H4.832C4.832 35.9623 5.25268 34.6338 6.13238 33.3819L4.496 32.232L2.85962 31.0821C1.52066 32.9876 0.832 35.1151 0.832 37.416H2.832ZM4.496 32.232L6.14661 33.3614C7.09976 31.9683 8.33705 30.7611 9.88398 29.7423L8.784 28.072L7.68402 26.4017C5.73229 27.6869 4.11091 29.253 2.84539 31.1026L4.496 32.232ZM8.784 28.072L9.8934 29.7361C11.547 28.6337 13.2436 27.7977 14.9845 27.2174L14.352 25.32L13.7195 23.4226C11.6204 24.1223 9.60504 25.1209 7.6746 26.4079L8.784 28.072ZM14.352 25.32L15.009 27.209C16.8108 26.5823 18.3994 26.296 19.792 26.296V24.296V22.296C17.8566 22.296 15.8185 22.6924 13.695 23.431L14.352 25.32ZM19.792 24.296V26.296C20.1676 26.296 20.2506 26.3296 20.1773 26.3077C20.1416 26.2969 19.9082 26.2273 19.6541 25.9986C19.5154 25.8738 19.3624 25.6938 19.2463 25.4499C19.1276 25.2006 19.072 24.9357 19.072 24.68H21.072H23.072C23.072 23.9769 22.7479 23.4016 22.3299 23.0254C21.9692 22.7007 21.5757 22.5511 21.3267 22.4763C20.8267 22.3264 20.2697 22.296 19.792 22.296V24.296ZM21.072 24.68H19.072C19.072 24.3563 19.1773 24.0025 19.4093 23.7041C19.6192 23.4342 19.8497 23.3159 19.9482 23.2737C20.0468 23.2314 20.0899 23.232 20.0332 23.2401C19.983 23.2473 19.8854 23.256 19.728 23.256V25.256V27.256C20.2578 27.256 20.9218 27.2083 21.5238 26.9503C21.8463 26.8121 22.2448 26.5738 22.5667 26.1599C22.9107 25.7175 23.072 25.1957 23.072 24.68H21.072ZM19.728 25.256V23.256C17.8272 23.256 15.8389 23.7174 13.7867 24.5569L14.544 26.408L15.3013 28.2591C17.0037 27.5626 18.4715 27.256 19.728 27.256V25.256ZM14.544 26.408L13.7717 24.5631C11.7155 25.4238 9.87024 26.6222 8.24527 28.1516L9.616 29.608L10.9867 31.0644C12.2631 29.8631 13.7031 28.9282 15.3163 28.2529L14.544 26.408ZM9.616 29.608L8.28727 28.1132C7.01014 29.2484 5.97744 30.4624 5.24699 31.7668L6.992 32.744L8.73701 33.7212C9.20123 32.8923 9.91786 32.0156 10.9447 31.1028L9.616 29.608ZM6.992 32.744L5.23342 31.7914C4.56639 33.0229 4.16 34.3104 4.16 35.624H6.16H8.16C8.16 35.1456 8.30828 34.5131 8.75058 33.6966L6.992 32.744ZM6.16 35.624H4.16C4.16 37.6939 5.1784 39.3665 6.84298 40.5719L8.016 38.952L9.18902 37.3321C8.37893 36.7455 8.16 36.1994 8.16 35.624H6.16ZM8.016 38.952L6.88053 40.5984C8.60486 41.7876 10.9414 42.232 13.584 42.232V40.232V38.232C11.2773 38.232 9.90181 37.8231 9.15147 37.3056L8.016 38.952ZM13.584 40.232V42.232C15.133 42.232 16.6995 42.1181 18.2828 41.8919L18 39.912L17.7172 37.9321C16.3138 38.1326 14.9364 38.232 13.584 38.232V40.232ZM18 39.912L18.3379 41.8832C19.8699 41.6206 21.2642 41.3335 22.5171 41.0203L22.032 39.08L21.5469 37.1397C20.4104 37.4238 19.1167 37.6914 17.6621 37.9408L18 39.912ZM22.032 39.08L22.5013 41.0242C23.7428 40.7245 24.6999 40.4854 25.3633 40.3085L24.848 38.376L24.3327 36.4435C23.7161 36.6079 22.7959 36.8382 21.5627 37.1358L22.032 39.08ZM24.848 38.376L25.465 40.2784C27.1213 39.7413 28.7727 39.0938 30.419 38.3374L29.584 36.52L28.749 34.7026C27.238 35.3969 25.732 35.9867 24.231 36.4736L24.848 38.376ZM29.584 36.52L30.4007 38.3456C32.1224 37.5754 33.6861 36.7043 35.0829 35.7265L33.936 34.088L32.7891 32.4495C31.6259 33.2637 30.2883 34.0139 28.7673 34.6944L29.584 36.52ZM33.936 34.088L35.1187 35.7008C36.5204 34.6729 37.6649 33.5628 38.4393 32.3458L36.752 31.272L35.0647 30.1982C34.6445 30.8586 33.9116 31.6257 32.7533 32.4752L33.936 34.088ZM36.752 31.272L38.4161 32.3814C38.8466 31.7357 39.1883 31.0495 39.3855 30.3262L37.456 29.8L35.5265 29.2738C35.4677 29.4891 35.3401 29.7843 35.0879 30.1626L36.752 31.272ZM37.456 29.8L39.3356 30.4835C39.5726 29.8317 39.712 29.1518 39.712 28.456H37.712H35.712C35.712 28.6136 35.6807 28.8297 35.5764 29.1165L37.456 29.8ZM37.712 28.456H39.712C39.712 26.5542 38.8173 24.992 37.3222 23.8557L36.112 25.448L34.9018 27.0403C35.5401 27.5254 35.712 27.9684 35.712 28.456H37.712ZM36.112 25.448L37.3614 23.8863C36.1074 22.8831 34.5632 22.0272 32.7751 21.2937L32.016 23.144L31.2569 24.9943C32.7968 25.6261 33.9833 26.3063 34.8626 27.0097L36.112 25.448ZM32.016 23.144L32.7751 21.2937C31.0565 20.5886 29.2346 19.9304 27.3104 19.3181L26.704 21.224L26.0976 23.1299C27.9281 23.7123 29.6475 24.3341 31.2569 24.9943L32.016 23.144ZM26.704 21.224L27.3493 19.331C25.5065 18.7027 23.7741 18.0555 22.1511 17.3897L21.392 19.24L20.6329 21.0903C22.3379 21.7898 24.1468 22.4653 26.0587 23.117L26.704 21.224ZM21.392 19.24L22.1511 17.3897C20.6112 16.7579 19.4247 16.0777 18.5454 15.3743L17.296 16.936L16.0466 18.4977C17.3006 19.5009 18.8448 20.3568 20.6329 21.0903L21.392 19.24ZM17.296 16.936L18.5824 15.4046C17.9042 14.8349 17.696 14.3038 17.696 13.736H15.696H13.696C13.696 15.6429 14.5545 17.2451 16.0096 18.4674L17.296 16.936ZM15.696 13.736H17.696C17.696 12.8691 17.9917 12.0856 18.7016 11.3166L17.232 9.96L15.7624 8.60344C14.4243 10.053 13.696 11.7869 13.696 13.736H15.696ZM17.232 9.96L18.6995 11.3188C19.5888 10.3584 20.742 9.48682 22.1955 8.72184L21.264 6.952L20.3325 5.18216C18.5433 6.12384 17.0086 7.25758 15.7645 8.60118L17.232 9.96ZM21.264 6.952L22.2122 8.71294C23.7505 7.88461 25.3929 7.21102 27.1427 6.69403L26.576 4.776L26.0093 2.85796C24.0045 3.4503 22.1055 4.22738 20.3158 5.19106L21.264 6.952ZM26.576 4.776L27.1824 6.68185C28.9854 6.10815 30.6897 5.6833 32.2968 5.40206L31.952 3.432L31.6072 1.46194C29.801 1.77803 27.9212 2.24917 25.9696 2.87015L26.576 4.776ZM31.952 3.432L32.2968 5.40206C33.9453 5.11356 35.2276 4.984 36.176 4.984V2.984V0.983997C34.9057 0.983997 33.372 1.1531 31.6072 1.46194L31.952 3.432ZM36.176 2.984V4.984C38.4205 4.984 39.8062 5.27515 40.5616 5.65285C40.911 5.82756 41.0529 5.98487 41.1119 6.0734C41.1626 6.14941 41.216 6.2673 41.216 6.504H43.216H45.216C45.216 5.56736 44.9761 4.65859 44.4401 3.8546C43.9125 3.06313 43.1744 2.48711 42.3504 2.07514C40.7592 1.27951 38.6248 0.983997 36.176 0.983997V2.984ZM43.216 6.504H41.216C41.216 6.9178 41.0358 7.63207 40.3647 8.71327L42.064 9.768L43.7633 10.8227C44.6282 9.42926 45.216 7.96753 45.216 6.504H43.216ZM42.064 9.768L40.2993 8.82682C40.0806 9.23683 39.7385 9.68482 39.2274 10.1619L40.592 11.624L41.9566 13.0861C42.7255 12.3685 43.3647 11.5792 43.8287 10.7092L42.064 9.768ZM40.592 11.624L39.2821 10.1126C39.1544 10.2233 39.0455 10.3103 38.9546 10.3771C38.8628 10.4447 38.7985 10.485 38.7599 10.5069C38.7192 10.5298 38.7248 10.5222 38.7715 10.5066C38.8164 10.4917 38.9392 10.456 39.12 10.456V12.456V14.456C39.7915 14.456 40.3563 14.1993 40.7281 13.9891C41.1316 13.7611 41.526 13.4611 41.9019 13.1354L40.592 11.624ZM39.12 12.456V10.456C39.3877 10.456 39.9272 10.5485 40.3505 11.0424C40.7233 11.4773 40.736 11.918 40.736 12.008H38.736H36.736C36.736 12.3966 36.8127 13.0613 37.3135 13.6456C37.8648 14.2888 38.5963 14.456 39.12 14.456V12.456ZM38.736 12.008H40.736C40.736 12.2904 40.6731 12.5107 40.6248 12.6425C40.5751 12.7779 40.5201 12.876 40.4866 12.9309C40.4228 13.0353 40.3733 13.0856 40.3863 13.0714C40.4087 13.047 40.4999 12.9569 40.7065 12.7879L39.44 11.24L38.1735 9.69208C37.9108 9.90708 37.6499 10.137 37.4377 10.3685C37.3334 10.4824 37.1959 10.6447 37.0734 10.8451C36.9788 10.9999 36.736 11.4237 36.736 12.008H38.736ZM39.44 11.24L40.7853 12.7199C41.3513 12.2053 41.8955 11.608 42.4206 10.9396L40.848 9.704L39.2754 8.46835C38.8619 8.99464 38.4673 9.42133 38.0947 9.76012L39.44 11.24ZM40.848 9.704L42.4206 10.9396C43.0905 10.0871 43.552 9.06712 43.552 7.912H41.552H39.552C39.552 7.95154 39.5442 8.1262 39.2754 8.46836L40.848 9.704ZM41.552 7.912H43.552C43.552 7.05439 43.2972 6.23358 42.768 5.528C42.2581 4.84817 41.5708 4.37654 40.8493 4.04587L40.016 5.864L39.1827 7.68213C39.4852 7.82079 39.5659 7.92516 39.568 7.928C39.5687 7.92897 39.5664 7.92594 39.5628 7.91913C39.5592 7.91225 39.556 7.90452 39.5536 7.89701C39.548 7.87978 39.552 7.88082 39.552 7.912H41.552ZM40.016 5.864L40.8789 4.05973C39.5289 3.41408 37.8979 3.16 36.112 3.16V5.16V7.16C37.5687 7.16 38.5404 7.37525 39.1531 7.66827L40.016 5.864ZM36.112 5.16V3.16C35.1654 3.16 33.9178 3.31301 32.4364 3.57443L32.784 5.544L33.1316 7.51357C34.5515 7.26299 35.5226 7.16 36.112 7.16V5.16ZM32.784 5.544L32.493 3.56528C30.9286 3.79535 29.2539 4.18217 27.4733 4.71635L28.048 6.632L28.6227 8.54765C30.2555 8.05782 31.7381 7.71932 33.075 7.52272L32.784 5.544ZM28.048 6.632L27.4733 4.71635C25.6353 5.26776 23.8666 6.00296 22.169 6.92059L23.12 8.68L24.071 10.4394C25.5308 9.65037 27.0474 9.02024 28.6227 8.54765L28.048 6.632ZM23.12 8.68L22.1552 6.9281C20.6191 7.77404 19.3491 8.62062 18.4366 9.48022C17.582 10.2853 16.704 11.418 16.704 12.84H18.704H20.704C20.704 13.11 20.562 12.9733 21.1794 12.3918C21.7389 11.8647 22.6769 11.2073 24.0848 10.4319L23.12 8.68ZM18.704 12.84H16.704C16.704 13.9783 17.2736 14.8787 17.9323 15.5205C18.5772 16.1488 19.4286 16.6572 20.3619 17.0879L21.2 15.272L22.0381 13.4561C21.3074 13.1188 20.9108 12.8379 20.7237 12.6555C20.5504 12.4866 20.704 12.5551 20.704 12.84H18.704ZM21.2 15.272L20.3819 17.097C21.6703 17.6746 23.1434 18.2676 24.7966 18.8767L25.488 17L26.1794 15.1233C24.5899 14.5377 23.2044 13.9788 22.0181 13.447L21.2 15.272ZM25.488 17L24.7966 18.8767C26.3943 19.4653 28.0144 20.0965 29.6569 20.7703L30.416 18.92L31.1751 17.0697C29.4896 16.3782 27.8244 15.7293 26.1794 15.1233L25.488 17ZM30.416 18.92L29.6569 20.7703C31.2336 21.4172 32.6758 22.1395 33.9874 22.9344L35.024 21.224L36.0606 19.5136C34.5562 18.6018 32.9264 17.7881 31.1751 17.0697L30.416 18.92ZM35.024 21.224L34.01 22.9479C35.2978 23.7054 36.2478 24.5154 36.9183 25.3534L38.48 24.104L40.0417 22.8546C39.0055 21.5593 37.6516 20.4493 36.038 19.5001L35.024 21.224ZM38.48 24.104L36.9748 25.421C37.5619 26.0919 37.824 26.8008 37.824 27.624H39.824H41.824C41.824 25.8018 41.1901 24.1641 39.9852 22.787L38.48 24.104ZM39.824 27.624H37.824C37.824 28.643 37.2673 29.9899 35.4976 31.6827L36.88 33.128L38.2624 34.5733C40.418 32.5114 41.824 30.189 41.824 27.624H39.824ZM36.88 33.128L35.5068 31.674C34.0868 33.015 32.4117 34.2749 30.4698 35.4482L31.504 37.16L32.5382 38.8718C34.6923 37.5704 36.6012 36.1423 38.2532 34.582L36.88 33.128ZM31.504 37.16L30.4538 35.4579C28.5513 36.6318 26.5232 37.6464 24.3673 38.5006L25.104 40.36L25.8407 42.2194C28.2075 41.2816 30.446 40.1629 32.5542 38.8621L31.504 37.16ZM25.104 40.36L24.3551 38.5055C22.2346 39.3619 20.1466 40.0094 18.0903 40.453L18.512 42.408L18.9337 44.363C21.2294 43.8679 23.5361 43.1501 25.8529 42.2145L25.104 40.36ZM18.512 42.408L18.0539 40.4612C16.0005 40.9443 14.1292 41.176 12.432 41.176V43.176V45.176C14.4895 45.176 16.6715 44.8957 18.9701 44.3548L18.512 42.408ZM53.5725 42.792L54.3298 40.9409L54.3188 40.9364L54.3078 40.9321L53.5725 42.792ZM49.1565 39.4L47.4993 40.5197L47.5168 40.5456L47.5351 40.571L49.1565 39.4ZM48.1325 28.968L50.0759 29.4407L50.0785 29.4298L48.1325 28.968ZM51.0765 21.416L49.331 20.4397L49.3246 20.451L49.3184 20.4625L51.0765 21.416ZM56.0685 14.312L54.5705 12.9869L54.5633 12.995L54.5562 13.0032L56.0685 14.312ZM62.4685 8.424L63.659 10.0311L63.6685 10.0241L63.6779 10.0169L62.4685 8.424ZM69.5725 4.328L70.3209 6.1827L70.3291 6.1794L70.3372 6.17603L69.5725 4.328ZM79.1725 2.984L79.5173 1.01394L79.5093 1.01254L79.5013 1.01121L79.1725 2.984ZM82.9485 4.904L81.4066 6.17776L81.4368 6.21429L81.4686 6.24935L82.9485 4.904ZM79.1085 16.68L80.4101 18.1985L80.4135 18.1955L79.1085 16.68ZM74.1805 20.136L73.1882 18.3995L73.1792 18.4047L73.1701 18.41L74.1805 20.136ZM68.9965 22.632L69.6987 24.5047L69.6987 24.5047L68.9965 22.632ZM64.4525 23.72L64.5576 25.7172L64.5694 25.7166L64.5813 25.7158L64.4525 23.72ZM64.8365 21.736L65.0026 23.7291L65.0153 23.728L64.8365 21.736ZM74.1165 18.728L75.1417 20.4453L75.1492 20.4408L74.1165 18.728ZM80.7725 11.624L79.0078 10.6828L79.0008 10.696L78.9939 10.7093L80.7725 11.624ZM81.5405 9.704L79.6315 9.10745L79.6189 9.14781L79.608 9.18867L81.5405 9.704ZM81.0285 5.416L79.4285 6.616L79.4709 6.67249L79.5171 6.72586L81.0285 5.416ZM73.1565 5.736L73.954 7.57014L73.9706 7.56291L73.9871 7.55538L73.1565 5.736ZM66.9485 9.384L65.774 7.76515L65.7664 7.7707L65.7588 7.77632L66.9485 9.384ZM60.6125 15.016L59.1703 13.6303L59.1697 13.6309L60.6125 15.016ZM55.0445 22.056L53.3676 20.966L53.3631 20.973L55.0445 22.056ZM51.2685 30.056L53.1706 30.6742L53.1744 30.6624L51.2685 30.056ZM53.1245 40.552L51.9881 42.1978L52.0015 42.2071L52.0151 42.2161L53.1245 40.552ZM68.2285 41.064L67.6791 39.1409L67.6717 39.1431L68.2285 41.064ZM76.9325 37.16L77.9879 38.8589L77.9971 38.8532L78.0063 38.8473L76.9325 37.16ZM84.0365 30.376L82.4365 29.176L82.4181 29.2005L82.4004 29.2256L84.0365 30.376ZM84.9325 30.376L83.3325 31.576L83.4178 31.6897L83.5183 31.7902L84.9325 30.376ZM84.9965 30.888L83.3965 29.688L83.3857 29.7024L83.3751 29.717L84.9965 30.888ZM77.3165 38.376L76.2127 36.7081L76.2014 36.7157L77.3165 38.376ZM68.4205 42.6L67.8605 40.68L67.8605 40.68L68.4205 42.6ZM59.7165 43.944V41.944C57.733 41.944 55.9451 41.6017 54.3298 40.9409L53.5725 42.792L52.8152 44.6431C54.9546 45.5183 57.2626 45.944 59.7165 45.944V43.944ZM53.5725 42.792L54.3078 40.9321C52.8128 40.341 51.6541 39.4423 50.7779 38.229L49.1565 39.4L47.5351 40.571C48.8775 42.4297 50.6629 43.7923 52.8372 44.6519L53.5725 42.792ZM49.1565 39.4L50.8137 38.2803C50.0249 37.1129 49.5565 35.5268 49.5565 33.384H47.5565H45.5565C45.5565 36.1052 46.1547 38.5297 47.4993 40.5197L49.1565 39.4ZM47.5565 33.384H49.5565C49.5565 32.2046 49.7226 30.8929 50.0758 29.4407L48.1325 28.968L46.1892 28.4953C45.7744 30.2004 45.5565 31.8327 45.5565 33.384H47.5565ZM48.1325 28.968L50.0785 29.4298C50.631 27.1011 51.5444 24.7483 52.8346 22.3695L51.0765 21.416L49.3184 20.4625C47.8779 23.1184 46.8286 25.8002 46.1865 28.5062L48.1325 28.968ZM51.0765 21.416L52.822 22.3923C54.1626 19.9954 55.7481 17.7386 57.5808 15.6208L56.0685 14.312L54.5562 13.0032C52.5489 15.3228 50.8064 17.8019 49.331 20.4397L51.0765 21.416ZM56.0685 14.312L57.5665 15.6371C59.4398 13.5195 61.4707 11.6521 63.659 10.0311L62.4685 8.424L61.278 6.81689C58.8583 8.60926 56.6225 10.6672 54.5705 12.9869L56.0685 14.312ZM62.4685 8.424L63.6779 10.0169C65.8549 8.36398 68.0695 7.09117 70.3209 6.1827L69.5725 4.328L68.8241 2.4733C66.2115 3.52749 63.6901 4.98536 61.2591 6.83111L62.4685 8.424ZM69.5725 4.328L70.3372 6.17603C72.594 5.24217 74.7883 4.792 76.9325 4.792V2.792V0.792C74.2127 0.792 71.5003 1.36583 68.8078 2.47997L69.5725 4.328ZM76.9325 2.792V4.792C77.54 4.792 78.1765 4.84559 78.8437 4.95679L79.1725 2.984L79.5013 1.01121C78.6325 0.866413 77.7757 0.792 76.9325 0.792V2.792ZM79.1725 2.984L78.8277 4.95406C80.235 5.20034 80.9935 5.67777 81.4066 6.17776L82.9485 4.904L84.4904 3.63024C83.2821 2.16756 81.5233 1.36499 79.5173 1.01394L79.1725 2.984ZM82.9485 4.904L81.4686 6.24935C81.9966 6.83013 82.2285 7.44189 82.2285 8.168H84.2285H86.2285C86.2285 6.41944 85.6071 4.8552 84.4284 3.55865L82.9485 4.904ZM84.2285 8.168H82.2285C82.2285 9.16468 81.9112 10.2438 81.1414 11.4335L82.8205 12.52L84.4996 13.6065C85.6072 11.8949 86.2285 10.0727 86.2285 8.168H84.2285ZM82.8205 12.52L81.1414 11.4335C80.3224 12.6992 79.2193 13.9453 77.8035 15.1645L79.1085 16.68L80.4135 18.1955C82.0698 16.7694 83.4413 15.2422 84.4996 13.6065L82.8205 12.52ZM79.1085 16.68L77.8069 15.1615C76.4142 16.3553 74.8759 17.4352 73.1882 18.3995L74.1805 20.136L75.1728 21.8725C77.0692 20.7888 78.8162 19.5647 80.4101 18.1985L79.1085 16.68ZM74.1805 20.136L73.1701 18.41C71.5084 19.3827 69.8831 20.1635 68.2943 20.7593L68.9965 22.632L69.6987 24.5047C71.5232 23.8205 73.354 22.9373 75.1909 21.862L74.1805 20.136ZM68.9965 22.632L68.2943 20.7593C66.7079 21.3542 65.3922 21.6552 64.3237 21.7241L64.4525 23.72L64.5813 25.7158C66.1581 25.6141 67.8718 25.1898 69.6987 24.5047L68.9965 22.632ZM64.4525 23.72L64.3474 21.7228C64.2428 21.7283 64.211 21.7211 64.2324 21.7245C64.2513 21.7274 64.3756 21.7485 64.5426 21.8451C64.7261 21.9514 64.9276 22.1311 65.0702 22.3938C65.2081 22.6479 65.2365 22.8788 65.2365 23.016H63.2365H61.2365C61.2365 23.905 61.6513 24.7933 62.5384 25.3069C63.2421 25.7143 64.0154 25.7458 64.5576 25.7172L64.4525 23.72ZM63.2365 23.016H65.2365C65.2365 23.4775 64.9967 23.7002 65.0347 23.6622L63.6205 22.248L62.2063 20.8338C61.7323 21.3078 61.2365 22.0425 61.2365 23.016H63.2365ZM63.6205 22.248L65.0347 23.6622C65.0161 23.6808 64.9953 23.6978 64.9739 23.7121C64.9526 23.7263 64.9352 23.7348 64.9246 23.7393C64.9036 23.7481 64.9221 23.7358 65.0026 23.7291L64.8365 21.736L64.6704 19.7429C63.7931 19.816 62.9077 20.1324 62.2063 20.8338L63.6205 22.248ZM64.8365 21.736L65.0153 23.728C68.6414 23.4026 72.0242 22.3065 75.1417 20.4452L74.1165 18.728L73.0913 17.0108C70.4915 18.5629 67.6876 19.4721 64.6577 19.744L64.8365 21.736ZM74.1165 18.728L75.1492 20.4408C78.3655 18.5015 80.8438 15.8585 82.5511 12.5387L80.7725 11.624L78.9939 10.7093C77.6292 13.3628 75.6702 15.4558 73.0838 17.0152L74.1165 18.728ZM80.7725 11.624L82.5372 12.5652C82.9438 11.8028 83.2593 11.0205 83.473 10.2193L81.5405 9.704L79.608 9.18867C79.4803 9.66752 79.2839 10.1652 79.0078 10.6828L80.7725 11.624ZM81.5405 9.704L83.4495 10.3005C83.7116 9.46165 83.8605 8.61895 83.8605 7.784H81.8605H79.8605C79.8605 8.14371 79.7961 8.58101 79.6315 9.10745L81.5405 9.704ZM81.8605 7.784H83.8605C83.8605 6.4201 83.4445 5.14993 82.5399 4.10614L81.0285 5.416L79.5171 6.72586C79.7218 6.96207 79.8605 7.27057 79.8605 7.784H81.8605ZM81.0285 5.416L82.6285 4.21599C81.5676 2.80148 79.8746 2.392 78.2765 2.392V4.392V6.392C78.778 6.392 79.0867 6.45832 79.259 6.52244C79.3408 6.55287 79.3844 6.57995 79.4037 6.59382C79.4215 6.60656 79.4267 6.61357 79.4285 6.616L81.0285 5.416ZM78.2765 4.392V2.392C76.4344 2.392 74.4333 2.95456 72.3259 3.91662L73.1565 5.736L73.9871 7.55538C75.805 6.72544 77.2172 6.392 78.2765 6.392V4.392ZM73.1565 5.736L72.3591 3.90186C70.2345 4.82557 68.0391 6.12189 65.774 7.76515L66.9485 9.384L68.123 11.0028C70.2099 9.48878 72.1532 8.3531 73.954 7.57014L73.1565 5.736ZM66.9485 9.384L65.7588 7.77632C63.524 9.43011 61.3284 11.3842 59.1703 13.6303L60.6125 15.016L62.0547 16.4017C64.0779 14.2958 66.1064 12.4952 68.1382 10.9917L66.9485 9.384ZM60.6125 15.016L59.1697 13.6309C57.0318 15.8579 55.098 18.3039 53.3676 20.966L55.0445 22.056L56.7214 23.146C58.319 20.6881 60.0972 18.4407 62.0553 16.4011L60.6125 15.016ZM55.0445 22.056L53.3631 20.973C51.6475 23.6367 50.3128 26.4633 49.3627 29.4496L51.2685 30.056L53.1744 30.6624C54.0162 28.0167 55.1988 25.51 56.7259 23.139L55.0445 22.056ZM51.2685 30.056L49.3664 29.4378C48.7616 31.2988 48.4365 33.0885 48.4365 34.792H50.4365H52.4365C52.4365 33.5942 52.666 32.2266 53.1706 30.6742L51.2685 30.056ZM50.4365 34.792H48.4365C48.4365 37.9053 49.545 40.5109 51.9881 42.1978L53.1245 40.552L54.2609 38.9062C53.12 38.1185 52.4365 36.8841 52.4365 34.792H50.4365ZM53.1245 40.552L52.0151 42.2161C54.2273 43.6909 56.9739 44.344 60.1005 44.344V42.344V40.344C57.5098 40.344 55.6057 39.8024 54.2339 38.8879L53.1245 40.552ZM60.1005 42.344V44.344C62.8022 44.344 65.7016 43.8788 68.7853 42.9849L68.2285 41.064L67.6717 39.1431C64.8674 39.9559 62.3482 40.344 60.1005 40.344V42.344ZM68.2285 41.064L68.7779 42.987C71.9544 42.0795 75.025 40.6995 77.9879 38.8589L76.9325 37.16L75.8771 35.4611C73.208 37.1192 70.4759 38.3418 67.6791 39.141L68.2285 41.064ZM76.9325 37.16L78.0063 38.8473C81.043 36.9148 83.6021 34.4711 85.6726 31.5264L84.0365 30.376L82.4004 29.2256C80.6309 31.7423 78.454 33.8212 75.8588 35.4727L76.9325 37.16ZM84.0365 30.376L85.6365 31.576C85.5749 31.6582 85.4488 31.7993 85.2368 31.9205C85.0117 32.0491 84.7501 32.12 84.4845 32.12V30.12V28.12C83.5281 28.12 82.8375 28.6414 82.4365 29.176L84.0365 30.376ZM84.4845 30.12V32.12C84.219 32.12 83.9573 32.0491 83.7322 31.9205C83.5201 31.7993 83.3941 31.6581 83.3325 31.576L84.9325 30.376L86.5325 29.176C86.1315 28.6414 85.4409 28.12 84.4845 28.12V30.12ZM84.9325 30.376L83.5183 31.7902C83.4133 31.6853 83.1549 31.3834 83.0919 30.8801C83.0237 30.3342 83.2283 29.9123 83.3965 29.688L84.9965 30.888L86.5965 32.088C86.8927 31.693 87.1506 31.1005 87.0611 30.3839C86.9768 29.71 86.6223 29.2374 86.3467 28.9618L84.9325 30.376ZM84.9965 30.888L83.3751 29.717C81.285 32.611 78.8958 34.9326 76.2128 36.7081L77.3165 38.376L78.4202 40.0439C81.5399 37.9794 84.2706 35.309 86.6179 32.059L84.9965 30.888ZM77.3165 38.376L76.2014 36.7157C73.5004 38.5299 70.7208 39.8458 67.8605 40.68L68.4205 42.6L68.9805 44.52C72.2642 43.5622 75.4153 42.0621 78.4316 40.0363L77.3165 38.376ZM68.4205 42.6L67.8605 40.68C64.94 41.5318 62.2284 41.944 59.7165 41.944V43.944V45.944C62.6659 45.944 65.757 45.4602 68.9805 44.52L68.4205 42.6Z" fill="currentColor" mask="url(#path-1-outside-1_13_7)"/>
</svg>
